<svg width="18" height="15" viewBox="0 0 18 15" fill="none" xmlns="http://www.w3.org/2000/svg">
<path id="Vector" d="M15.3125 0.625H2.1875C1.60753 0.62562 1.05149 0.85629 0.64139 1.26639C0.23129 1.67649 0.00062 2.23253 0 2.8125V12.1875C0.00062 12.7675 0.23129 13.3235 0.64139 13.7336C1.05149 14.1437 1.60753 14.3744 2.1875 14.375H15.3125C15.8925 14.3744 16.4485 14.1437 16.8586 13.7336C17.2687 13.3235 17.4994 12.7675 17.5 12.1875V2.8125C17.4994 2.23253 17.2687 1.67649 16.8586 1.26639C16.4485 0.85629 15.8925 0.62562 15.3125 0.625ZM14.7586 4.24336L9.13359 8.61839C9.02389 8.70359 8.88889 8.74989 8.75 8.74989C8.61107 8.74989 8.4761 8.70359 8.36641 8.61839L2.74141 4.24336C2.67532 4.19345 2.61981 4.13091 2.5781 4.05936C2.53639 3.98781 2.50932 3.90869 2.49846 3.82659C2.48759 3.74449 2.49316 3.66105 2.51482 3.58111C2.53648 3.50118 2.57382 3.42635 2.62465 3.36097C2.67548 3.29559 2.7388 3.24097 2.81093 3.20027C2.88306 3.15957 2.96255 3.13362 3.0448 3.12391C3.12705 3.1142 3.2104 3.12094 3.29002 3.14373C3.36964 3.16651 3.44394 3.20489 3.5086 3.25664L8.75 7.33321L13.9914 3.25664C14.1225 3.15767 14.2872 3.11426 14.4501 3.1358C14.6129 3.15735 14.7607 3.24211 14.8615 3.37177C14.9623 3.50143 15.008 3.66555 14.9888 3.82866C14.9695 3.99176 14.8868 4.14074 14.7586 4.24336Z" fill="url(#paint0_linear_6_390)"/>
<defs>
<linearGradient id="paint0_linear_6_390" x1="15.8594" y1="0.625" x2="11.2189" y2="15.163" gradientUnits="userSpaceOnUse">
<stop stop-color="#071739"/>
<stop offset="1" stop-color="#4B6382"/>
</linearGradient>
</defs>
</svg>
